# xmcd
#
# Track frame offsets:
#	150
#	13601
#	24889
#	37598
#	48248
#	61340
#	72495
#	84772
#	97526
#	107716
#	117311
#	130257
#	142217
#	152940
#	162538
#	177852
#	189641
#	202621
#	212801
#	225823
#	236303
#	248047
#	259042
#	268839
#
# Disc length: 3772 seconds
# Revision: 0
# Processed by: cddbd v1.5.2PL0 Copyright (c) Steve Scherf et al.
# Submitted via: dBpowerAMP V12.0
#
DISCID=330eba18
DTITLE=Jim Reeves - The Legendary Jim Reeves
DYEAR=1988
DGENRE=Country
TTITLE0=Danny Boy
TTITLE1=My Happiness
TTITLE2=I Can't Stop Loving You
TTITLE3=Am I That Easy To Forget
TTITLE4=Have I Told You Lately That I Love You
TTITLE5=Someday(You'll Want Me To Want You)
TTITLE6=Maria Elena
TTITLE7=Roses Are Red(My Love)
TTITLE8=Making Believe
TTITLE9=The Hawaiian Wedding Song
TTITLE10=Goodnight Irene
TTITLE11=May The Good Lord Bless And Keep You
TTITLE12=He'll Have To Go
TTITLE13=Billy Bayou
TTITLE14=Blue Side Of Lonesome
TTITLE15=Welcome To My World
TTITLE16=Distant Drums
TTITLE17=Is It Really Over
TTITLE18=Four Walls
TTITLE19=Am I Losing You
TTITLE20=I Missed Me
TTITLE21=I Guess I'm Crazy
TTITLE22=I Won't Come In While He's There
TTITLE23=This Is It
EXTD=
EXTT0=
EXTT1=
EXTT2=
EXTT3=
EXTT4=
EXTT5=
EXTT6=
EXTT7=
EXTT8=
EXTT9=
EXTT10=
EXTT11=
EXTT12=
EXTT13=
EXTT14=
EXTT15=
EXTT16=
EXTT17=
EXTT18=
EXTT19=
EXTT20=
EXTT21=
EXTT22=
EXTT23=
PLAYORDER=
